<svg width="330" height="78" viewBox="0 0 330 78" fill="none" xmlns="http://www.w3.org/2000/svg" role="img" aria-labelledby="title">
<title id="title">SolarKitGuide toolkit logo</title>
<rect x="6" y="18" width="60" height="42" rx="10" fill="#063B2C"/>
<path d="M19 18v-3c0-5 4-9 9-9h16c5 0 9 4 9 9v3" stroke="#063B2C" stroke-width="6" stroke-linecap="round"/>
<circle cx="25" cy="31" r="9" fill="#F8B931"/>
<path d="M18 45h38l-4 9H22l-4-9Z" fill="#0D6B4F" stroke="#DDF2E9" stroke-width="1.6"/>
<path d="M27 46l1 8M37 46v8M47 46l-1 8M21 50h33" stroke="#B9E2D2" stroke-width="1.6" stroke-linecap="round"/>
<path d="M50 27l-7 11h8l-9 15" stroke="#FFF8D8" stroke-width="3.6" stroke-linecap="round" stroke-linejoin="round"/>
<text x="84" y="44" fill="#10231D" font-family="Inter,Arial,sans-serif" font-size="33" font-weight="950" letter-spacing="-1.8">SolarKitGuide</text>
<text x="86" y="62" fill="#5F716A" font-family="Inter,Arial,sans-serif" font-size="12" font-weight="850" letter-spacing="1.8">CALCULATORS • KITS • BUYING GUIDES</text>
</svg>
